<svg width="170" height="108" viewBox="0 0 170 108" fill="none" xmlns="http://www.w3.org/2000/svg">
<path d="M118.889 -21.4445C73.6556 -21.4445 36.9445 15.2666 36.9445 60.4999C36.9445 105.733 73.6556 142.444 118.889 142.444C164.122 142.444 200.833 105.733 200.833 60.4999C200.833 15.2666 164.122 -21.4445 118.889 -21.4445ZM130.443 110.404V126.055H108.564V110.24C94.5514 107.29 82.6695 98.2763 81.7681 82.3791H97.8292C98.6486 90.9833 104.549 97.7027 119.544 97.7027C135.606 97.7027 139.211 89.6722 139.211 84.6735C139.211 77.8722 135.606 71.4805 117.332 67.1374C97.0097 62.2208 83.0792 53.8624 83.0792 37.0638C83.0792 22.9694 94.4695 13.7916 108.564 10.7597V-5.05562H130.443V10.9235C145.685 14.611 153.306 26.1652 153.797 38.7027H137.736C137.326 29.6069 132.492 23.3791 119.544 23.3791C107.253 23.3791 99.8778 28.9513 99.8778 36.818C99.8778 43.7013 105.204 48.2083 121.757 52.4694C138.31 56.7305 156.01 63.8597 156.01 84.5097C155.928 99.5055 144.701 107.7 130.443 110.404Z" fill="white" fill-opacity="0.3"/>
<path d="M30.8333 -18.6667C5.38001 -18.6667 -15.2778 1.99105 -15.2778 27.4444C-15.2778 52.8977 5.38001 73.5555 30.8333 73.5555C56.2867 73.5555 76.9445 52.8977 76.9445 27.4444C76.9445 1.99105 56.2867 -18.6667 30.8333 -18.6667ZM37.335 55.5261V64.3333H25.0233V55.4338C17.1383 53.7738 10.4522 48.7016 9.94501 39.7561H18.9828C19.4439 44.5977 22.7639 48.3788 31.2022 48.3788C40.24 48.3788 42.2689 43.8599 42.2689 41.0472C42.2689 37.2199 40.24 33.6233 29.9572 31.1794C18.5217 28.4127 10.6828 23.7094 10.6828 14.2566C10.6828 6.3255 17.0922 1.16105 25.0233 -0.545059V-9.4445H37.335V-0.452837C45.9117 1.62216 50.2 8.12383 50.4767 15.1788H41.4389C41.2083 10.0605 38.4878 6.55605 31.2022 6.55605C24.2856 6.55605 20.1356 9.69161 20.1356 14.1183C20.1356 17.9916 23.1328 20.5277 32.4472 22.9255C41.7617 25.3233 51.7217 29.3349 51.7217 40.9549C51.6756 49.3933 45.3583 54.0044 37.335 55.5261Z" fill="white" fill-opacity="0.3"/>
</svg>
