<svg width="40" height="40" viewBox="0 0 40 40" fill="none" xmlns="http://www.w3.org/2000/svg">
<path d="M33.3334 10H6.66675V13.3333H33.3334V10Z" fill="#909090"/>
<path d="M30 3.33334H10V6.66668H30V3.33334Z" fill="#909090"/>
<path d="M33.3333 16.6667H6.66659C5.78253 16.6667 4.93468 17.0178 4.30956 17.643C3.68444 18.2681 3.33325 19.1159 3.33325 20V33.3333C3.33325 34.2174 3.68444 35.0652 4.30956 35.6903C4.93468 36.3155 5.78253 36.6667 6.66659 36.6667H33.3333C34.2173 36.6667 35.0652 36.3155 35.6903 35.6903C36.3154 35.0652 36.6666 34.2174 36.6666 33.3333V20C36.6666 19.1159 36.3154 18.2681 35.6903 17.643C35.0652 17.0178 34.2173 16.6667 33.3333 16.6667ZM24.9999 28.3333H21.6666V31.6667H18.3333V28.3333H14.9999V25H18.3333V21.6667H21.6666V25H24.9999V28.3333Z" fill="#909090"/>
</svg>
