<svg width="60" height="60" viewBox="0 0 60 60" fill="none" xmlns="http://www.w3.org/2000/svg">
<path d="M30 0C13.44 0 0 13.44 0 30C0 46.56 13.44 60 30 60C46.56 60 60 46.56 60 30C60 13.44 46.56 0 30 0ZM45 33H33V45H27V33H15V27H27V15H33V27H45V33Z" fill="black"/>
<path d="M30 0C13.44 0 0 13.44 0 30C0 46.56 13.44 60 30 60C46.56 60 60 46.56 60 30C60 13.44 46.56 0 30 0ZM45 33H33V45H27V33H15V27H27V15H33V27H45V33Z" fill="white" fill-opacity="0.2"/>
<path d="M15 27V33H27V45H33V33H45V27H33V15H27V27H15Z" fill="white"/>
</svg>
