<svg width="40" height="40" viewBox="0 0 40 40" fill="none" xmlns="http://www.w3.org/2000/svg">
<path d="M6.66659 30V28.9167C6.66659 28.35 6.93325 27.8167 7.34992 27.5667C10.1666 25.8833 13.3833 25 16.6666 25C16.7166 25 16.7499 25 16.7999 25.0167C16.9666 23.85 17.2999 22.7333 17.7833 21.7167C17.4166 21.6833 17.0499 21.6667 16.6666 21.6667C12.6333 21.6667 8.86659 22.7833 5.64992 24.7C4.18325 25.5667 3.33325 27.2 3.33325 28.9167V33.3333H18.7666C18.0666 32.3333 17.5166 31.2 17.1499 30H6.66659Z" fill="#919191"/>
<path d="M16.6667 20C20.35 20 23.3333 17.0167 23.3333 13.3333C23.3333 9.64999 20.35 6.66666 16.6667 6.66666C12.9833 6.66666 10 9.64999 10 13.3333C10 17.0167 12.9833 20 16.6667 20ZM16.6667 9.99999C18.5 9.99999 20 11.5 20 13.3333C20 15.1667 18.5 16.6667 16.6667 16.6667C14.8333 16.6667 13.3333 15.1667 13.3333 13.3333C13.3333 11.5 14.8333 9.99999 16.6667 9.99999Z" fill="#919191"/>
<path d="M34.5834 26.6667C34.5834 26.3 34.5334 25.9667 34.4834 25.6167L36.3834 23.9333L34.7168 21.05L32.3001 21.8667C31.7668 21.4167 31.1668 21.0667 30.5001 20.8167L30.0001 18.3333H26.6668L26.1668 20.8167C25.5001 21.0667 24.9001 21.4167 24.3668 21.8667L21.9501 21.05L20.2834 23.9333L22.1834 25.6167C22.1334 25.9667 22.0834 26.3 22.0834 26.6667C22.0834 27.0333 22.1334 27.3667 22.1834 27.7167L20.2834 29.4L21.9501 32.2833L24.3668 31.4667C24.9001 31.9167 25.5001 32.2667 26.1668 32.5167L26.6668 35H30.0001L30.5001 32.5167C31.1668 32.2667 31.7668 31.9167 32.3001 31.4667L34.7168 32.2833L36.3834 29.4L34.4834 27.7167C34.5334 27.3667 34.5834 27.0333 34.5834 26.6667ZM28.3334 30C26.5001 30 25.0001 28.5 25.0001 26.6667C25.0001 24.8333 26.5001 23.3333 28.3334 23.3333C30.1668 23.3333 31.6668 24.8333 31.6668 26.6667C31.6668 28.5 30.1668 30 28.3334 30Z" fill="#919191"/>
</svg>
